<svg width="372" height="66" viewBox="0 0 372 66" fill="none" xmlns="http://www.w3.org/2000/svg">
<path fill-rule="evenodd" clip-rule="evenodd" d="M371.029 0C364.338 6.51001 357.107 7.37801 350.524 8.13751L347.286 8.57151C343.725 8.89701 340.811 9.11401 337.465 11.284C334.12 13.237 330.235 17.577 327.537 20.832C317.177 22.568 308.435 25.823 301.096 29.8375C288.146 36.89 279.081 46.3296 272.39 53.3821L265.807 60.8686L266.994 60.5431C278.973 49.6931 290.304 41.7726 301.096 37.107C307.787 34.069 314.371 32.2245 320.738 31.5735H320.954L327.861 22.785C329.587 21.1575 332.285 20.5065 336.17 20.181L343.077 19.747L348.905 19.4215L350.848 19.2045C355.488 18.5535 359.265 17.577 364.769 10.416L372 0.651001L371.029 0ZM322.573 27.4505C322.573 27.4505 320.63 30.0545 320.306 30.38C314.155 31.248 307.787 32.984 301.204 35.805C292.895 39.494 284.477 44.7021 275.627 51.8631C281.779 45.3531 289.981 37.324 301.204 31.248C308.219 27.342 316.745 24.087 326.781 22.351C326.026 22.8935 322.573 27.4505 322.573 27.4505ZM363.69 9.76501C358.618 16.6005 355.056 17.577 350.632 18.1195L348.905 18.228L342.969 18.5535L336.062 19.096C333.257 19.4215 331.098 19.8555 329.371 20.9405C331.746 18.228 335.199 14.105 338.221 12.152C341.458 10.199 345.128 10.0905 347.394 9.65651L348.797 9.54801H349.013L350.955 9.43951C356.459 8.78851 362.611 7.81201 368.654 3.5805C366.28 6.29301 363.69 9.76501 363.69 9.76501Z" fill="black"/>
<path fill-rule="evenodd" clip-rule="evenodd" d="M266.562 60.2177C287.499 45.2447 298.723 39.3857 323.544 39.0602L318.256 46.2212C317.177 48.1742 315.558 48.1742 314.047 47.9572C296.24 47.8487 283.83 49.1507 262.354 64.4492L266.562 60.2177Z" fill="url(#paint0_linear_65_1476)"/>
<path fill-rule="evenodd" clip-rule="evenodd" d="M267.749 59.0238C267.641 59.0238 267.641 59.0238 267.749 59.0238C288.254 40.9043 305.629 32.7668 320.738 31.0308C322.141 29.4033 326.782 23.3273 328.185 21.3743C294.082 26.7993 278.433 48.7163 267.749 59.0238Z" fill="url(#paint1_linear_65_1476)"/>
<path fill-rule="evenodd" clip-rule="evenodd" d="M267.641 59.024C267.318 59.241 266.67 60.109 266.023 60.6515C265.807 60.8685 265.483 61.3025 265.483 61.3025C269.476 58.2645 277.57 52.297 284.908 48.391C292.247 44.485 301.204 41.3385 313.939 39.6025C315.126 38.3005 319.011 33.418 320.738 30.814C297.211 34.1775 281.779 46.872 267.641 59.024Z" fill="url(#paint2_linear_65_1476)"/>
<path fill-rule="evenodd" clip-rule="evenodd" d="M317.716 46.9807C317.932 46.2212 318.472 45.5702 315.989 44.0512C312.752 42.2067 311.781 43.0747 312.428 41.2302C312.968 39.7112 319.551 37.1072 324.407 38.7347C324.407 38.8432 320.09 43.6172 317.716 46.9807Z" fill="url(#paint3_linear_65_1476)"/>
<path fill-rule="evenodd" clip-rule="evenodd" d="M336.278 19.2046C331.314 19.7471 328.292 20.9406 326.35 23.3276L319.767 32.1161C321.385 30.8141 325.702 30.0546 330.451 30.0546H331.098C331.314 30.0546 331.422 30.0546 331.638 30.0546C332.393 30.0546 333.041 29.8376 333.796 29.8376C340.703 29.7291 349.984 28.7526 355.704 22.3511L363.906 11.3926L364.769 10.1991C357.539 19.3131 341.459 18.3366 336.278 19.2046Z" fill="url(#paint4_linear_65_1476)"/>
<path fill-rule="evenodd" clip-rule="evenodd" d="M348.582 8.89705C346.423 9.22255 341.675 9.11405 337.79 11.5011C333.689 13.9966 328.832 19.8556 326.458 23.0021C328.616 20.7236 331.746 19.9641 335.955 19.4216C340.164 18.9876 346.207 19.0961 350.632 18.4451C354.841 18.0111 358.726 17.1431 364.014 9.98205L371.461 0.217041C364.014 7.59505 355.704 7.92055 348.582 8.89705Z" fill="url(#paint5_linear_65_1476)"/>
<path fill-rule="evenodd" clip-rule="evenodd" d="M340.164 28.9695C335.091 29.6205 329.156 29.8375 327.429 29.946C324.623 29.946 320.738 30.9225 319.659 32.2245C316.313 36.1306 313.292 39.7111 312.428 41.3386C314.371 39.4941 320.954 39.7111 328.832 39.3856C336.818 39.0601 344.696 35.5881 351.064 28.644L355.92 22.134C352.79 26.1485 347.071 27.993 340.164 28.9695Z" fill="url(#paint6_linear_65_1476)"/>
<path fill-rule="evenodd" clip-rule="evenodd" d="M207.098 26.3656C211.415 23.219 217.998 22.134 222.639 22.134C227.279 22.134 233.862 23.219 238.287 26.3656C241.741 28.7525 243.359 32.3331 243.359 35.371C243.359 38.4091 241.741 41.881 238.287 44.3766C233.862 47.4146 227.279 48.4996 222.639 48.4996C217.998 48.4996 211.523 47.5231 207.098 44.3766C203.645 41.881 202.026 38.4091 202.026 35.371C202.026 32.3331 203.645 28.861 207.098 26.3656ZM215.084 42.315C217.243 45.0275 220.157 45.57 222.639 45.57C225.121 45.57 228.035 45.0275 230.193 42.315C232.028 40.145 232.352 37.6496 232.352 35.4796C232.352 33.201 232.028 30.7056 230.193 28.5356C228.035 25.7146 225.121 25.1721 222.639 25.1721C220.157 25.1721 217.243 25.8231 215.084 28.5356C213.358 30.7056 213.034 33.201 213.034 35.4796C213.034 37.541 213.25 40.145 215.084 42.315ZM64.9677 44.051V47.957H40.0383V22.8935H64.2123V26.691H49.9669V33.201H63.4569V36.89H49.9669V44.051H64.9677ZM79.537 26.691V47.957H69.5005V22.8935H88.1706C91.9478 22.8935 95.9408 22.8935 98.9626 24.6295C101.445 26.04 102.524 28.3185 102.524 30.38C102.524 32.116 101.445 34.1775 99.5022 35.4795C97.8834 36.5645 95.1854 37.2154 93.4587 37.4325L102.848 47.8485H91.3003L81.3716 35.371L82.5587 35.4795C84.7171 35.805 88.1706 35.5879 90.1131 34.286C91.624 33.3095 92.0557 32.2245 92.0557 31.031C92.0557 29.6204 91.4082 28.5354 90.329 27.776C88.8181 26.7995 87.0914 26.691 85.3647 26.691H79.537ZM159.937 47.957V37.3241H173.319V33.5265H159.937V26.691H174.399V22.8935H150.009V47.957H159.937ZM178.068 22.8935H187.997V44.051H202.674V47.957H178.068V22.8935ZM243.791 26.691H254.583V47.957H264.512V26.691H275.304V22.8935H243.791V26.691ZM125.835 22.134C121.194 22.134 114.611 23.219 110.294 26.3656C106.841 28.861 105.222 32.3331 105.222 35.371C105.222 38.4091 106.841 41.881 110.294 44.3766C114.719 47.5231 121.194 48.4996 125.835 48.4996C130.475 48.4996 137.058 47.4146 141.483 44.3766C144.936 41.881 146.555 38.4091 146.555 35.371C146.555 32.3331 144.936 28.7525 141.483 26.3656C137.058 23.219 130.475 22.134 125.835 22.134ZM125.835 45.57C123.352 45.57 120.439 45.0275 118.28 42.315C116.446 40.145 116.122 37.541 116.122 35.4796C116.122 33.201 116.446 30.7056 118.28 28.5356C120.439 25.8231 123.352 25.1721 125.835 25.1721C128.317 25.1721 131.231 25.7146 133.389 28.5356C135.224 30.7056 135.439 33.201 135.439 35.4796C135.439 37.6496 135.116 40.145 133.389 42.315C131.231 45.0275 128.317 45.57 125.835 45.57ZM8.84945 40.6875L4.96429 47.957H0L13.7058 22.8935H22.9869L38.0957 47.957H26.8721L22.6632 40.6875H8.84945ZM15.4325 28.5354L10.6841 37.2154H20.6127L15.5405 28.5354H15.4325Z" fill="#01529B"/>
<defs>
<linearGradient id="paint0_linear_65_1476" x1="276.334" y1="35.2439" x2="302.907" y2="61.3388" gradientUnits="userSpaceOnUse">
<stop stop-color="#C00318"/>
<stop offset="0.3" stop-color="#E2001A"/>
<stop offset="0.3292" stop-color="#E42323"/>
<stop offset="0.3882" stop-color="#E8513F"/>
<stop offset="0.4709" stop-color="#EF8A7E"/>
<stop offset="0.5292" stop-color="#F5B3B3"/>
<stop offset="0.553" stop-color="#F19990"/>
<stop offset="0.5885" stop-color="#EC7564"/>
<stop offset="0.6237" stop-color="#E85644"/>
<stop offset="0.6577" stop-color="#E53C2F"/>
<stop offset="0.6903" stop-color="#E42323"/>
<stop offset="0.7209" stop-color="#E3051C"/>
<stop offset="0.7475" stop-color="#E2001A"/>
<stop offset="1" stop-color="#C00318"/>
</linearGradient>
<linearGradient id="paint1_linear_65_1476" x1="265.04" y1="16.1679" x2="331.346" y2="64.0844" gradientUnits="userSpaceOnUse">
<stop stop-color="white"/>
<stop offset="0.34" stop-color="white"/>
<stop offset="0.54" stop-color="white"/>
<stop offset="0.91" stop-color="#D3DBED"/>
<stop offset="1" stop-color="#D3DBED"/>
</linearGradient>
<linearGradient id="paint2_linear_65_1476" x1="276.831" y1="30.0055" x2="313.396" y2="65.9082" gradientUnits="userSpaceOnUse">
<stop stop-color="#004B93"/>
<stop offset="0.1296" stop-color="#004B93"/>
<stop offset="0.1708" stop-color="#00559A"/>
<stop offset="0.3067" stop-color="#5378B3"/>
<stop offset="0.4079" stop-color="#7A92C5"/>
<stop offset="0.4622" stop-color="#889DCC"/>
<stop offset="0.4697" stop-color="#8198C9"/>
<stop offset="0.5489" stop-color="#3A6AA9"/>
<stop offset="0.6069" stop-color="#005399"/>
<stop offset="0.6371" stop-color="#004B93"/>
<stop offset="0.9166" stop-color="#004B93"/>
</linearGradient>
<linearGradient id="paint3_linear_65_1476" x1="311.884" y1="36.9377" x2="325.949" y2="46.0231" gradientUnits="userSpaceOnUse">
<stop stop-color="#C00318"/>
<stop offset="0.5" stop-color="#E2001A"/>
<stop offset="1" stop-color="#F5B3B3"/>
</linearGradient>
<linearGradient id="paint4_linear_65_1476" x1="323.508" y1="5.45222" x2="362.324" y2="37.5506" gradientUnits="userSpaceOnUse">
<stop stop-color="#D4DEEF"/>
<stop offset="0.0730286" stop-color="#D4DEEF"/>
<stop offset="0.1174" stop-color="#BCC9E3"/>
<stop offset="0.2114" stop-color="#7E96C5"/>
<stop offset="0.3463" stop-color="#00559A"/>
<stop offset="0.3708" stop-color="#004B93"/>
<stop offset="0.4288" stop-color="#004F96"/>
<stop offset="0.5195" stop-color="#0F5B9E"/>
<stop offset="0.6316" stop-color="#4972AD"/>
<stop offset="0.7606" stop-color="#7E96C5"/>
<stop offset="0.9024" stop-color="#BDCAE4"/>
<stop offset="0.9494" stop-color="#D4DEEF"/>
<stop offset="1" stop-color="#D4DEEF"/>
</linearGradient>
<linearGradient id="paint5_linear_65_1476" x1="331.289" y1="-3.19626" x2="368.158" y2="27.2924" gradientUnits="userSpaceOnUse">
<stop stop-color="white"/>
<stop offset="0.1742" stop-color="white"/>
<stop offset="0.2463" stop-color="#FAFBFD"/>
<stop offset="0.3435" stop-color="#EBEEF7"/>
<stop offset="0.3865" stop-color="#E3E7F3"/>
<stop offset="0.4746" stop-color="#F0F2F9"/>
<stop offset="0.5941" stop-color="#FBFCFD"/>
<stop offset="0.7" stop-color="white"/>
<stop offset="1" stop-color="white"/>
</linearGradient>
<linearGradient id="paint6_linear_65_1476" x1="317.315" y1="17.6059" x2="350.384" y2="44.9517" gradientUnits="userSpaceOnUse">
<stop stop-color="#F5B3B3"/>
<stop offset="0.0561829" stop-color="#F5B3B3"/>
<stop offset="0.071738" stop-color="#F3A5A1"/>
<stop offset="0.1265" stop-color="#EC7867"/>
<stop offset="0.1763" stop-color="#E85240"/>
<stop offset="0.2193" stop-color="#E53229"/>
<stop offset="0.2541" stop-color="#E3101E"/>
<stop offset="0.2761" stop-color="#E2001A"/>
<stop offset="0.294" stop-color="#DF001A"/>
<stop offset="0.4383" stop-color="#C90019"/>
<stop offset="0.5169" stop-color="#C00318"/>
<stop offset="0.574" stop-color="#C90019"/>
<stop offset="0.6789" stop-color="#DF001A"/>
<stop offset="0.6919" stop-color="#E2001A"/>
<stop offset="0.8914" stop-color="#F3A9A6"/>
<stop offset="1" stop-color="#F5B3B3"/>
</linearGradient>
</defs>
</svg>
