<svg width="263" height="70" viewBox="0 0 263 70" fill="none" xmlns="http://www.w3.org/2000/svg">
<rect width="263" height="69.6023" rx="18" fill="#FF715B"/>
<path d="M45.688 23.4651V45.8011H41.208V23.4651H45.688ZM57.9223 23.4651C60.2689 23.4651 62.3276 23.9238 64.0983 24.8411C65.8903 25.7585 67.2663 27.0705 68.2263 28.7771C69.2076 30.4625 69.6983 32.4251 69.6983 34.6651C69.6983 36.9051 69.2076 38.8678 68.2263 40.5531C67.2663 42.2171 65.8903 43.5078 64.0983 44.4251C62.3276 45.3425 60.2689 45.8011 57.9223 45.8011H50.1143V23.4651H57.9223ZM57.7623 41.9931C60.1089 41.9931 61.9223 41.3531 63.2023 40.0731C64.4823 38.7931 65.1223 36.9905 65.1223 34.6651C65.1223 32.3398 64.4823 30.5265 63.2023 29.2251C61.9223 27.9025 60.1089 27.2411 57.7623 27.2411H54.5943V41.9931H57.7623ZM77.5318 27.0811V32.6811H85.0518V36.2331H77.5318V42.1531H86.0118V45.8011H73.0518V23.4331H86.0118V27.0811H77.5318ZM103.779 41.5451H94.883L93.411 45.8011H88.707L96.739 23.4331H101.955L109.987 45.8011H105.251L103.779 41.5451ZM102.563 37.9611L99.331 28.6171L96.099 37.9611H102.563ZM126.781 23.4651V27.0811H117.469V32.8091H124.605V36.3611H117.469V45.8011H112.989V23.4651H126.781ZM140.326 46.0251C138.235 46.0251 136.315 45.5345 134.566 44.5531C132.817 43.5718 131.43 42.2171 130.406 40.4891C129.382 38.7398 128.87 36.7665 128.87 34.5691C128.87 32.3931 129.382 30.4411 130.406 28.7131C131.43 26.9638 132.817 25.5985 134.566 24.6171C136.315 23.6358 138.235 23.1451 140.326 23.1451C142.438 23.1451 144.358 23.6358 146.086 24.6171C147.835 25.5985 149.211 26.9638 150.214 28.7131C151.238 30.4411 151.75 32.3931 151.75 34.5691C151.75 36.7665 151.238 38.7398 150.214 40.4891C149.211 42.2171 147.835 43.5718 146.086 44.5531C144.337 45.5345 142.417 46.0251 140.326 46.0251ZM140.326 42.0251C141.67 42.0251 142.854 41.7265 143.878 41.1291C144.902 40.5105 145.702 39.6358 146.278 38.5051C146.854 37.3745 147.142 36.0625 147.142 34.5691C147.142 33.0758 146.854 31.7745 146.278 30.6651C145.702 29.5345 144.902 28.6705 143.878 28.0731C142.854 27.4758 141.67 27.1771 140.326 27.1771C138.982 27.1771 137.787 27.4758 136.742 28.0731C135.718 28.6705 134.918 29.5345 134.342 30.6651C133.766 31.7745 133.478 33.0758 133.478 34.5691C133.478 36.0625 133.766 37.3745 134.342 38.5051C134.918 39.6358 135.718 40.5105 136.742 41.1291C137.787 41.7265 138.982 42.0251 140.326 42.0251ZM166.603 45.8011L161.675 37.0971H159.563V45.8011H155.083V23.4651H163.467C165.195 23.4651 166.667 23.7745 167.883 24.3931C169.099 24.9905 170.006 25.8118 170.603 26.8571C171.222 27.8811 171.531 29.0331 171.531 30.3131C171.531 31.7851 171.104 33.1185 170.251 34.3131C169.398 35.4865 168.128 36.2971 166.443 36.7451L171.787 45.8011H166.603ZM159.563 33.7371H163.307C164.523 33.7371 165.43 33.4491 166.027 32.8731C166.624 32.2758 166.923 31.4545 166.923 30.4091C166.923 29.3851 166.624 28.5958 166.027 28.0411C165.43 27.4651 164.523 27.1771 163.307 27.1771H159.563V33.7371ZM191.135 30.1851C190.623 29.2465 189.919 28.5318 189.023 28.0411C188.127 27.5505 187.082 27.3051 185.887 27.3051C184.564 27.3051 183.391 27.6038 182.367 28.2011C181.343 28.7985 180.543 29.6518 179.967 30.7611C179.391 31.8705 179.103 33.1505 179.103 34.6011C179.103 36.0945 179.391 37.3958 179.967 38.5051C180.564 39.6145 181.386 40.4678 182.431 41.0651C183.476 41.6625 184.692 41.9611 186.079 41.9611C187.786 41.9611 189.183 41.5131 190.271 40.6171C191.359 39.6998 192.074 38.4305 192.415 36.8091H184.735V33.3851H196.831V37.2891C196.532 38.8465 195.892 40.2865 194.911 41.6091C193.93 42.9318 192.66 43.9985 191.103 44.8091C189.567 45.5985 187.839 45.9931 185.919 45.9931C183.764 45.9931 181.812 45.5131 180.063 44.5531C178.335 43.5718 176.97 42.2171 175.967 40.4891C174.986 38.7611 174.495 36.7985 174.495 34.6011C174.495 32.4038 174.986 30.4411 175.967 28.7131C176.97 26.9638 178.335 25.6091 180.063 24.6491C181.812 23.6678 183.754 23.1771 185.887 23.1771C188.404 23.1771 190.591 23.7958 192.447 25.0331C194.303 26.2491 195.583 27.9665 196.287 30.1851H191.135ZM204.626 27.0811V32.6811H212.146V36.2331H204.626V42.1531H213.106V45.8011H200.146V23.4331H213.106V27.0811H204.626ZM219.161 46.0251C218.35 46.0251 217.678 45.7798 217.145 45.2891C216.633 44.7771 216.377 44.1478 216.377 43.4011C216.377 42.6545 216.633 42.0358 217.145 41.5451C217.678 41.0331 218.35 40.7771 219.161 40.7771C219.95 40.7771 220.601 41.0331 221.113 41.5451C221.625 42.0358 221.881 42.6545 221.881 43.4011C221.881 44.1478 221.625 44.7771 221.113 45.2891C220.601 45.7798 219.95 46.0251 219.161 46.0251Z" fill="white"/>
</svg>
