<svg width="85" height="85" viewBox="0 0 85 85" fill="none" xmlns="http://www.w3.org/2000/svg">
<circle cx="43" cy="42" r="41" fill="white"/>
<path fill-rule="evenodd" clip-rule="evenodd" d="M42.4167 14.0833C37.4611 14.0824 32.5918 15.3813 28.2951 17.8503C23.9983 20.3194 20.4243 23.8722 17.9297 28.1542C15.4351 32.4362 14.1072 37.2976 14.0786 42.2532C14.0501 47.2087 15.3217 52.0851 17.7667 56.3956C19.4193 54.2479 21.5436 52.5089 23.9755 51.3133C26.4075 50.1176 29.0818 49.4972 31.7917 49.5H53.0417C55.7517 49.4972 58.426 50.1176 60.8579 51.3133C63.2898 52.5089 65.4141 54.2479 67.0667 56.3956C69.5117 52.0851 70.7834 47.2087 70.7548 42.2532C70.7262 37.2976 69.3983 32.4362 66.9037 28.1542C64.4091 23.8722 60.8351 20.3194 56.5383 17.8503C52.2416 15.3813 47.3723 14.0824 42.4167 14.0833ZM70.5482 63.9358C70.992 63.3574 71.417 62.7647 71.8232 62.1579C75.7496 56.3237 77.8426 49.4491 77.8334 42.4167C77.8334 22.856 61.9773 7 42.4167 7C22.8561 7 7.00004 22.856 7.00004 42.4167C6.98888 50.1968 9.55018 57.7625 14.2852 63.9358L14.2675 63.9996L15.5248 65.4623C18.8465 69.3458 22.9708 72.4628 27.6134 74.5985C32.2559 76.7342 37.3064 77.8379 42.4167 77.8333C43.1817 77.8333 43.942 77.8097 44.6975 77.7625C51.0881 77.3595 57.2481 75.2229 62.5157 71.5823C65.0349 69.8444 67.3182 67.7872 69.3086 65.4623L70.5659 63.9996L70.5482 63.9358ZM42.4167 21.1667C39.5988 21.1667 36.8963 22.2861 34.9037 24.2787C32.9111 26.2712 31.7917 28.9737 31.7917 31.7917C31.7917 34.6096 32.9111 37.3121 34.9037 39.3047C36.8963 41.2972 39.5988 42.4167 42.4167 42.4167C45.2346 42.4167 47.9371 41.2972 49.9297 39.3047C51.9223 37.3121 53.0417 34.6096 53.0417 31.7917C53.0417 28.9737 51.9223 26.2712 49.9297 24.2787C47.9371 22.2861 45.2346 21.1667 42.4167 21.1667Z" fill="#4C5454"/>
</svg>
