<svg width="300" height="83" viewBox="0 0 300 83" fill="none" xmlns="http://www.w3.org/2000/svg">
<path d="M83.3333 67.313C83.3333 77.3975 77.7083 83 67.5833 83H15.75C5.625 83 0 77.3975 0 67.313V15.687C0 5.6025 5.625 0 15.75 0H67.6042C77.7083 0 83.3333 5.6025 83.3333 15.687V67.313Z" fill="#FFE600"/>
<path fill-rule="evenodd" clip-rule="evenodd" d="M53.5822 37.4534V29.5272L56.4562 26.6625V33.5308L58.9576 36.0201L69.0188 25.9991L71.4987 28.467C71.4773 26.6007 71.1025 21.1849 66.4981 16.6821C61.5403 11.9106 56.165 14.067 54.3318 15.8929L44.2899 25.8946L46.8534 28.4478L41.6664 33.6545L36.4774 28.4884L39.0409 25.9373L28.999 15.9356C27.1658 14.1097 21.7904 11.9511 16.8326 16.7226C12.2282 21.2254 11.8534 26.6412 11.832 28.5097L14.312 26.0397L24.3731 36.0627L26.8745 33.5735V26.7052L29.7485 29.5677V37.494L33.7897 41.4998L13.873 61.3369L21.7497 69.1586L41.6664 49.3429L61.581 69.18L69.4578 61.356L49.541 41.4998L53.5822 37.4534ZM97.2299 44.9659H112.251V49.6756H102.856V54.5112H105.98C108.083 54.5112 110.793 54.7608 112.833 56.753C113.709 57.6233 114.793 59.2209 114.793 61.7933C114.793 62.5697 114.697 63.3142 114.51 64.0095C114.198 65.1699 113.63 66.1895 112.833 66.9808C112.292 67.5205 111.677 67.9343 111.002 68.2478C110.696 68.3886 110.377 68.5102 110.045 68.6147C109.882 68.6659 109.717 68.7128 109.548 68.7555C108.323 69.0648 106.957 69.1608 105.501 69.1608H97.2299V44.9659ZM105.064 64.658C105.835 64.658 107.21 64.5961 108.083 63.8901C108.253 63.745 108.542 63.4592 108.754 63.0049C108.908 62.6785 109.021 62.2647 109.021 61.7528C109.021 61.5694 109.006 61.3966 108.981 61.2345C108.953 61.0617 108.91 60.9017 108.859 60.7524C108.777 60.5178 108.67 60.313 108.55 60.136C108.437 59.9696 108.31 59.8288 108.184 59.7115C108.128 59.6603 108.073 59.6134 108.017 59.5707L107.938 59.511C107.064 58.8881 105.646 58.869 105.064 58.869H102.834V64.6793H105.064V64.658ZM135.166 52.9754H129.917V54.8013C128.904 53.4298 127.557 52.8325 126.366 52.5893C125.794 52.472 125.259 52.4358 124.811 52.4358C122.563 52.4358 120.584 53.2442 119.166 54.6562C117.667 56.1494 116.645 58.4743 116.645 61.1918C116.645 63.3291 117.311 65.445 119.02 67.2517C120.813 69.1394 122.77 69.7196 125.105 69.7196C125.792 69.7196 126.66 69.6343 127.531 69.2631C128.373 68.9048 129.221 68.2798 129.917 67.2091V69.1608H135.166V52.9754ZM122.042 61.0468C122.042 60.2469 122.244 59.5984 122.516 59.0865C122.738 58.6706 123.006 58.3442 123.25 58.1011C123.938 57.4164 124.978 56.9386 126.105 56.9599C127.062 56.9599 128.229 57.3118 129.02 58.0797C129.165 58.2162 129.3 58.3656 129.422 58.5255C129.561 58.7111 129.683 58.9116 129.788 59.1228C130.075 59.6966 130.23 60.3578 130.23 61.0468C130.23 62.4375 129.645 63.4549 128.957 64.097C128.615 64.4383 128.199 64.7177 127.737 64.9118C127.272 65.108 126.76 65.2168 126.229 65.2168C124.978 65.2168 123.854 64.7198 123.124 63.9519C122.665 63.4336 122.042 62.4993 122.042 61.0468ZM138.333 52.9754H143.582V58.5981H149.459V52.9754H154.708V69.1608H149.459V62.8108H143.582V69.1608H138.333V52.9754ZM163.103 52.9754H157.854V69.1608H163.103V61.981L168.645 69.1608H175.417L167.979 60.4879L174.937 52.9754H168.416L163.103 59.4086V52.9754ZM105.79 13.8409C107.895 13.8409 110.229 14.131 112.165 15.8332C114.249 17.6377 114.54 20.0459 114.54 21.7054C114.54 24.7556 113.373 26.4577 112.457 27.4112C110.521 29.3629 107.978 29.5485 106.269 29.5485H102.854V38.0358H97.2491V13.8409H105.79ZM102.832 24.9838H104.832C105.13 24.9838 105.509 24.9774 105.916 24.9198C106.569 24.8281 107.291 24.6063 107.854 24.0709C108.353 23.5718 108.771 22.7228 108.771 21.684C108.771 21.219 108.696 20.7903 108.561 20.4149C108.402 19.9712 108.158 19.598 107.854 19.3185C107.019 18.5314 105.811 18.4056 104.728 18.4056H102.832V24.9838ZM133.478 21.8504H128.229V23.6763C127.51 22.7015 126.621 22.117 125.741 21.7736C124.786 21.4004 123.839 21.3108 123.124 21.3108C120.875 21.3108 118.896 22.1192 117.479 23.5312C115.979 25.0244 114.958 27.3493 114.958 30.0668C114.958 31.449 115.236 32.8227 115.896 34.1089C116.256 34.8128 116.729 35.4889 117.333 36.1267C119.125 38.0144 121.083 38.5946 123.417 38.5946C124.102 38.5946 124.963 38.5114 125.831 38.1445C126.677 37.7862 127.529 37.1612 128.229 36.084V38.0358H133.478V21.8504ZM120.355 29.9218C120.355 28.4692 121.021 27.5157 121.563 26.9761C122.25 26.2914 123.312 25.8136 124.417 25.8349C124.7 25.8349 125 25.8669 125.304 25.9288C125.482 25.965 125.659 26.0119 125.837 26.0717C126.383 26.2551 126.91 26.5452 127.332 26.9547C127.735 27.3344 128.047 27.8101 128.253 28.3455C128.341 28.5737 128.409 28.8126 128.458 29.0579C128.48 29.1645 128.497 29.2733 128.51 29.3842C128.521 29.4717 128.527 29.5613 128.531 29.6509C128.538 29.7405 128.542 29.83 128.542 29.9218C128.542 31.3125 127.957 32.3299 127.27 32.972C126.91 33.3303 126.471 33.6204 125.981 33.8167C125.79 33.8934 125.591 33.9553 125.385 34.0001L125.158 34.0449L124.946 34.0705C124.813 34.0854 124.679 34.0918 124.541 34.0918C123.995 34.0918 123.473 33.9958 122.995 33.8252C122.383 33.6055 121.847 33.2599 121.436 32.8269C120.978 32.3086 120.355 31.3743 120.355 29.9218ZM141.895 21.8504V31.1056L148.812 21.8504H153.688V38.0358H148.437V28.6356L141.52 38.0358H136.646V21.8504H141.895ZM151.772 15.3149C151.333 16.6203 150.459 17.7422 149.437 18.4056C148.062 19.3185 146.375 19.423 145.167 19.423C143.959 19.423 142.291 19.3185 140.897 18.4056C140.777 18.3288 140.659 18.2478 140.543 18.1582C140.413 18.0579 140.284 17.9491 140.16 17.8318C140.027 17.706 139.899 17.5737 139.775 17.4329C139.254 16.8357 138.828 16.1062 138.562 15.3149L142.207 13.9028C142.353 14.628 142.709 15.2103 143.145 15.5623C143.625 15.9569 144.229 16.2065 145.146 16.2065C145.371 16.2065 145.576 16.1915 145.767 16.1638L145.876 16.1467L145.983 16.1254L146.127 16.0891L146.27 16.0465C146.613 15.9334 146.895 15.7671 147.146 15.5623C147.583 15.2103 147.938 14.628 148.084 13.9028L151.772 15.3149ZM165.292 38.2853V46.1071H170.583V38.2853H170.791C174.479 38.2853 176.52 36.7687 177.458 35.8558C177.94 35.3844 178.419 34.7829 178.818 34.0342C178.886 33.9062 178.953 33.774 179.015 33.6375L179.126 33.3858C179.265 33.0509 179.387 32.6926 179.488 32.3065C179.612 31.8351 179.702 31.3253 179.752 30.7728C179.764 30.6171 179.775 30.4593 179.782 30.2972C179.788 30.1521 179.79 30.0071 179.79 29.8599C179.79 28.8105 179.632 27.8869 179.372 27.0806C179.143 26.3639 178.833 25.741 178.479 25.2057C178.396 25.0777 178.308 24.954 178.218 24.8345L178.141 24.7343L178.008 24.57C177.676 24.1669 177.325 23.8277 176.978 23.5526C175.374 22.2856 172.958 21.6009 170.813 21.6009H170.562V13.8409H165.313V21.6009H165.062C162.895 21.6009 160.499 22.2856 158.895 23.5526C157.541 24.6319 156.083 26.6646 156.083 29.8599C156.083 32.8056 157.25 34.736 158.417 35.8558C159.353 36.7687 161.396 38.2853 165.082 38.2853H165.292ZM164.227 25.9245C164.655 25.8306 165.103 25.7922 165.542 25.8136V34.0726C164.208 34.1131 162.957 33.6161 162.27 32.8483C161.644 32.2041 161.208 31.1461 161.208 29.8812C161.208 28.595 161.644 27.5562 162.27 26.9334C162.752 26.4407 163.458 26.093 164.227 25.9245ZM173.562 32.8696C172.875 33.6161 171.646 34.1345 170.292 34.0939V25.8349C171.136 25.7773 172.001 25.965 172.71 26.3383C173.031 26.5089 173.322 26.7158 173.562 26.9547C173.847 27.2384 174.093 27.6117 174.278 28.0532C174.496 28.5844 174.625 29.2115 174.625 29.9004C174.625 31.1674 174.188 32.2254 173.562 32.8696ZM190.543 46.1071V38.2853H190.333C189.147 38.2853 188.132 38.1275 187.266 37.8843C186.793 37.7521 186.367 37.5921 185.984 37.4193C184.887 36.9245 184.137 36.3144 183.668 35.8558C183.508 35.7022 183.347 35.5337 183.191 35.3482C183.054 35.1882 182.919 35.0154 182.79 34.832C182.488 34.4011 182.208 33.9041 181.977 33.3367C181.717 32.7032 181.52 31.9823 181.416 31.1674C181.383 30.9221 181.36 30.6662 181.347 30.4038C181.338 30.2268 181.334 30.0455 181.334 29.8599C181.334 26.6646 182.793 24.6319 184.146 23.5526C185.75 22.2856 188.147 21.6009 190.314 21.6009H190.564V13.8409H195.813V21.6009H196.064C196.73 21.6009 197.422 21.667 198.107 21.795C198.454 21.859 198.799 21.94 199.139 22.0381C199.439 22.1234 199.733 22.2216 200.019 22.3303C200.838 22.6439 201.596 23.0534 202.23 23.5526C203.585 24.6319 205.041 26.6646 205.041 29.8599C205.041 31.0331 204.857 32.0398 204.562 32.9016C204.296 33.6737 203.941 34.3286 203.549 34.8768C203.279 35.2522 202.994 35.5764 202.709 35.8558C202.11 36.4403 201.056 37.2721 199.407 37.7947C198.968 37.9334 198.486 38.0507 197.961 38.136C197.379 38.232 196.741 38.2853 196.043 38.2853H195.835V46.1071H190.543ZM190.794 25.8136C189.564 25.7517 188.271 26.1655 187.521 26.9334C186.896 27.5562 186.459 28.595 186.459 29.8812C186.459 31.1461 186.896 32.2041 187.521 32.8483C188.209 33.6161 189.459 34.1131 190.794 34.0726V25.8136ZM195.541 34.0939C196.897 34.1345 198.126 33.6161 198.814 32.8696C199.146 32.5283 199.424 32.0697 199.613 31.5258C199.78 31.0437 199.876 30.4955 199.876 29.9004C199.876 28.6356 199.439 27.5776 198.814 26.9547C198.043 26.1868 196.771 25.7517 195.541 25.8349V34.0939ZM225.082 21.8504H219.833V23.6763C218.332 21.6435 216.103 21.3108 214.728 21.3108C212.479 21.3108 210.5 22.1192 209.083 23.5312C207.584 25.0244 206.562 27.3493 206.562 30.0668C206.562 31.4277 206.832 32.78 207.468 34.0491C207.832 34.7744 208.316 35.4697 208.937 36.1267C210.73 38.0144 212.687 38.5946 215.021 38.5946C216.375 38.5946 218.416 38.264 219.833 36.084V38.0358H225.082V21.8504ZM211.959 29.9218C211.959 29.2477 212.102 28.6825 212.31 28.2153C212.55 27.6736 212.875 27.2662 213.167 26.9761C213.854 26.2914 214.916 25.8136 216.021 25.8349C216.979 25.8349 218.146 26.1868 218.936 26.9547C219.707 27.68 220.146 28.7593 220.146 29.9218C220.146 31.3125 219.561 32.3299 218.874 32.972C218.187 33.6567 217.208 34.0918 216.146 34.0918C214.895 34.0918 213.771 33.5948 213.04 32.8269C212.82 32.5774 212.561 32.2297 212.351 31.7754C212.126 31.2869 211.959 30.6726 211.959 29.9218ZM233.499 21.8504V31.1056L240.416 21.8504H245.293V38.0358H240.041V28.6356L233.124 38.0358H228.25V21.8504H233.499ZM243.376 15.3149C243.172 15.9206 242.875 16.4859 242.513 16.985C242.26 17.3348 241.975 17.6505 241.667 17.9257C241.468 18.1048 241.258 18.2648 241.042 18.4056C240.692 18.636 240.324 18.8151 239.947 18.9559C239.515 19.1159 239.073 19.2225 238.641 19.2929C237.968 19.4017 237.319 19.423 236.771 19.423C235.563 19.423 233.895 19.3185 232.501 18.4056C231.479 17.7614 230.603 16.6203 230.167 15.3149L233.812 13.9028C233.957 14.628 234.313 15.2103 234.75 15.5623C234.989 15.7585 235.259 15.9185 235.585 16.0294C235.91 16.1425 236.291 16.2065 236.75 16.2065C237.666 16.2065 238.27 15.9569 238.75 15.5623C238.973 15.3831 239.174 15.1442 239.339 14.8563C239.495 14.579 239.617 14.259 239.688 13.9028L243.376 15.3149ZM250.625 21.8909C249.749 22.2237 248.625 22.8039 247.937 23.2411L249.978 26.7478C250.501 26.3106 251.043 25.9799 251.73 25.6899C252.418 25.3976 253.041 25.2526 253.876 25.2526C254.75 25.2526 255.27 25.4403 255.521 25.5448C255.898 25.7133 256.105 25.9458 256.213 26.1676C256.287 26.3276 256.313 26.4812 256.313 26.6028C256.313 26.9142 256.168 27.3899 255.542 27.68C255.373 27.7589 255.148 27.8165 254.906 27.8591C254.435 27.9445 253.9 27.9722 253.583 27.9722H252.084V31.5194H254.041C254.626 31.5194 255.499 31.6239 255.938 31.8095C256.144 31.8991 256.315 32.0121 256.444 32.155C256.613 32.3427 256.709 32.5816 256.709 32.8888C256.709 33.1256 256.662 33.4348 256.446 33.7185C256.337 33.8593 256.187 33.9958 255.979 34.1131C255.459 34.4032 254.666 34.5077 254.084 34.5077C253.531 34.5077 252.927 34.4203 252.383 34.2816C252.086 34.2049 251.807 34.1131 251.563 34.0108C250.916 33.7185 250.145 33.2002 249.563 32.7032L247.334 36.148C247.539 36.3123 247.877 36.5768 248.327 36.8669C248.537 37.0012 248.768 37.142 249.021 37.2807C249.389 37.4812 249.803 37.6774 250.25 37.8481C251.709 38.3877 253.229 38.5754 254.688 38.5754C257.397 38.5754 259.292 38.1808 260.667 36.8327C261.207 36.2931 261.564 35.7172 261.785 35.1349C261.997 34.5717 262.083 34.0001 262.083 33.4498C262.083 33.3069 262.078 33.1661 262.065 33.0296C262.057 32.9421 262.048 32.8547 262.035 32.7693L262.005 32.5902C261.873 31.9161 261.562 31.3189 261.001 30.7728C260.772 30.5446 260.02 29.9004 258.812 29.6103C258.937 29.5655 259.059 29.5101 259.179 29.4482C259.279 29.397 259.376 29.3394 259.472 29.2776L259.596 29.1944C259.682 29.1347 259.765 29.0707 259.847 29.0046C259.967 28.9086 260.08 28.8041 260.187 28.6974C260.98 27.8677 261.166 26.9547 261.166 25.9373C261.166 25.628 261.142 25.323 261.087 25.0265C261.057 24.8644 261.016 24.7044 260.965 24.5466C260.785 23.9856 260.468 23.4566 259.958 22.9703C258.313 21.3726 255.334 21.3108 254.459 21.3108C253.208 21.3108 251.854 21.4558 250.625 21.8909ZM281.083 30.856H268.957C268.957 31.1568 268.998 31.4938 269.077 31.8351C269.227 32.4792 269.516 33.1405 269.938 33.614C270.146 33.8444 270.377 34.0257 270.619 34.1643C270.788 34.2625 270.964 34.3414 271.139 34.4032C271.66 34.5888 272.189 34.6315 272.623 34.6315C272.915 34.6315 273.208 34.6101 273.491 34.5675C273.956 34.495 274.39 34.3606 274.729 34.1537C274.791 34.1131 275.416 33.7185 275.853 32.8056L280.813 33.3047C280.083 35.5871 278.624 36.7901 277.686 37.3703C276.125 38.3045 274.375 38.5733 272.542 38.5733C270.103 38.5733 267.957 38.1381 266.062 36.2504C264.646 34.8384 263.625 32.7011 263.625 30.0049C263.625 27.68 264.458 25.2952 266.104 23.6144C267.079 22.6418 268.18 22.0616 269.261 21.7246C270.351 21.3833 271.422 21.2894 272.332 21.2894C274.146 21.2894 276.77 21.6222 278.791 23.7168C280.729 25.7517 281.083 28.2815 281.083 30.295V30.856ZM276.249 27.7418C276.208 27.5968 275.958 26.5815 275.187 25.8541C274.973 25.6557 274.724 25.4808 274.444 25.3379C274.262 25.2441 274.067 25.1651 273.857 25.1033C273.51 24.9988 273.127 24.9412 272.707 24.9412C272.255 24.9412 271.867 25.0009 271.531 25.099C270.857 25.2974 270.388 25.6536 270.041 25.9991C269.645 26.4364 269.27 27.0166 269.124 27.7418H276.249ZM288.707 21.8504H283.458V38.0358H288.707V31.6858H294.583V38.0358H299.832V21.8504H294.583V27.4731H288.707V21.8504Z" fill="#2B2D34"/>
</svg>
