<svg width="248" height="79" viewBox="0 0 248 79" fill="none" xmlns="http://www.w3.org/2000/svg">
<g clip-path="url(#clip0_65_1471)">
<path d="M125.395 18.8927H132.042V24.8286H125.395V18.8927ZM125.395 28.2811H132.042V53.2412H125.395V28.2811ZM142.16 32.2708H142.307C143.822 29.4485 145.533 27.9887 148.465 27.9887C149.198 27.9887 149.639 28.0378 150.03 28.1835V33.9734H149.883C145.533 33.5358 142.405 35.8225 142.405 41.077V53.2409H135.757V28.2808H142.16V32.2708ZM162.981 18.8927H169.628V24.8286H162.981V18.8927ZM162.981 28.2811H169.628V53.2412H162.981V28.2811ZM179.843 31.6867H179.989C181.7 29.0107 183.997 27.5997 187.418 27.5997C192.6 27.5997 196.069 31.4919 196.069 36.9415V53.2409H189.422V37.9144C189.422 35.2384 187.858 33.3408 185.072 33.3408C182.14 33.3408 179.989 35.6762 179.989 39.0821V53.2409H173.342V28.2808H179.843V31.6867H179.843ZM198.805 40.7367C198.805 33.341 203.839 27.5999 211.171 27.5999C219.236 27.5999 223.537 33.7304 223.537 42.6341H205.355C205.844 46.4775 207.994 48.8621 211.758 48.8621C214.348 48.8621 215.863 47.6943 216.596 45.7964H223.146C222.217 50.2243 218.258 53.9711 211.807 53.9711C203.498 53.9708 198.805 48.1804 198.805 40.7367ZM205.452 38.0607H216.596C216.401 34.8978 214.299 32.7081 211.269 32.7081C207.749 32.7081 206.039 34.8005 205.452 38.0607ZM225.068 45.1638H231.226C231.667 48.0346 233.719 49.2996 236.701 49.2996C239.634 49.2996 241.295 48.1804 241.295 46.4293C241.295 44.0451 238.118 43.8015 234.697 43.121C230.2 42.245 225.801 41.0285 225.801 35.5792C225.801 30.1787 230.298 27.5999 236.017 27.5999C242.615 27.5999 246.281 30.8598 246.769 35.871H240.758C240.464 33.1953 238.753 32.2221 235.919 32.2221C233.328 32.2221 231.618 33.1953 231.618 34.9954C231.618 37.136 234.941 37.3308 238.509 38.061C242.713 38.9366 247.356 40.1044 247.356 45.943C247.356 50.9545 243.055 53.9714 236.799 53.9714C229.516 53.9708 225.459 50.4679 225.068 45.1638ZM109.711 18.8927H101.975L87.9868 53.2409H95.9048L98.4953 46.186H112.768L115.406 53.2409H123.374L109.711 18.8927ZM100.401 40.3959L105.534 25.799L110.812 40.3956H100.401V40.3959ZM152.619 18.8927H159.267V53.2409H152.619V18.8927Z" fill="#747679"/>
<path d="M79.3597 39.5085C79.3597 61.3305 61.6069 79 39.6919 79C17.7741 79 0 61.3305 0 39.5085C0 17.6865 17.7741 0 39.6919 0C61.6072 0 79.3597 17.6865 79.3597 39.5085Z" fill="#BED600"/>
<path d="M36.8005 18.891C30.5503 18.891 26.4956 19.2349 23.5605 20.3196C18.6281 22.2323 15.2218 26.241 15.2218 31.5091C15.2218 35.8969 17.2742 39.0746 23.2139 42.7293C29.5514 46.5539 30.8157 47.8177 30.8157 50.1223C30.8157 52.6444 28.3333 55.5153 21.9459 55.5153C19.7166 55.5153 16.3587 55.2081 14.213 54.6856L13.1892 54.4286C12.6181 55.9528 11.3216 59.5583 10.9263 60.8665L11.94 61.1633C13.8701 61.7761 18.4506 62.2546 21.7323 62.2546C32.6495 62.2546 39.1631 55.6889 39.1631 48.8135C39.1631 44.5888 37.2367 41.378 30.7245 37.333C27.4579 35.3328 25.7932 34.0358 24.7822 33.0316C23.9628 31.9835 23.8721 31.2034 23.8721 30.3793C23.8721 29.5926 24.0479 28.686 24.5689 28.0218C25.1325 27.2008 26.1661 26.6777 27.5651 26.246C29.003 25.7711 31.6671 25.7586 35.8165 25.7586H39.68L42.4387 18.8913H36.8005V18.891ZM65.9982 18.891H46.5836L43.8245 25.758H50.2598C54.59 25.758 55.4229 25.6652 56.5103 25.6652C54.9405 29.24 45.4797 53.2395 45.4797 53.2395H53.4867C53.4867 53.2395 65.4646 23.3643 66.734 20.2321C67.0856 19.5331 66.9109 18.891 65.9982 18.891Z" fill="white"/>
</g>
<defs>
<clipPath id="clip0_65_1471">
<rect width="248" height="79" fill="white"/>
</clipPath>
</defs>
</svg>
