<svg width="400" height="62" viewBox="0 0 400 62" fill="none" xmlns="http://www.w3.org/2000/svg">
<path d="M178.889 18.8214L187.333 12.6214H159.333V49.3786H187.333V43.1786H167.333V33.8786H184.222V27.6786H167.333V18.8214H178.889ZM144 18.8214L152.445 12.6214H120.445V49.3786H137.111C146.445 49.3786 151.778 45.1714 151.778 37.8643C151.778 30.7786 146.889 27.0143 138 27.0143H128.222V18.8214H144ZM136.889 32.9929C142 32.9929 144.222 34.7643 144.222 38.0857C144.222 41.4072 141.778 43.1786 136.889 43.1786H128.445V32.9929H136.889ZM209.778 12.6214H194.667V49.3786H202.667V38.9714H210C219.778 38.9714 225.778 33.8786 225.778 25.6857C225.778 17.4929 219.556 12.6214 209.778 12.6214ZM209.778 32.7714H202.667V18.6H209.778C214.889 18.6 217.778 21.0357 217.778 25.6857C217.556 30.3357 214.889 32.7714 209.778 32.7714ZM106.889 41.4072C104.667 42.5143 102.445 43.1786 100 43.1786C92.889 43.1786 87.5557 38.0857 87.5557 31C87.5557 23.9143 92.6668 18.8214 100 18.8214C102.667 18.8214 105.111 19.7072 107.333 21.0357L113.111 16.8286L112.667 16.3857C109.333 13.5072 104.889 11.9572 99.7779 11.9572C94.2223 11.9572 89.3335 13.7286 85.5557 17.2714C82.0001 20.8143 79.7779 25.6857 80.0001 30.7786C80.0001 35.8714 82.0001 40.7429 85.5557 44.5072C89.3335 48.05 94.4446 50.0429 99.5557 49.8214C105.333 49.8214 110.222 47.8286 113.778 44.2857L108.667 40.5214L106.889 41.4072ZM346.667 27.6786H329.556V12.6214H321.556V49.3786H329.556V34.3214H346.667V49.3786H354.667V12.6214H346.667V27.6786ZM292.667 12.6214L276.667 49.3786H284.667L287.778 42.0714H304.667L307.778 49.3786H316.222L300.667 12.6214H292.667ZM290.445 35.8714L296.667 21.0357L302.445 35.8714H290.445ZM383.556 30.3357L398 12.6214H388.889L376.889 28.3429H372.445V12.6214H364.445V49.3786H372.445V34.5429H377.556L389.778 49.3786H400L383.556 30.3357ZM260 27.0143H250.222V18.8214H271.111V12.6214H242.222V49.3786H258.889C268.222 49.3786 273.556 45.1714 273.556 37.8643C273.778 30.7786 268.889 27.0143 260 27.0143ZM258.667 43.4H250.222V33.2143H258.667C263.778 33.2143 266 34.9857 266 38.3072C266.222 41.6286 263.556 43.4 258.667 43.4Z" fill="#21A038"/>
<path d="M54.4025 11.9158C55.8452 13.7993 57.0666 15.8456 58.0417 18.0136L30.3775 38.6071L18.8159 31.2883V22.4834L30.3775 29.8022L54.4025 11.9158Z" fill="#21A038"/>
<path d="M7.01621 30.6666C7.01621 30.2715 7.02575 29.879 7.04483 29.4888L0.0381595 29.1421C0.0143111 29.6478 8.46723e-06 30.1584 8.46723e-06 30.6737C-0.00297268 34.7001 0.781276 38.6873 2.30778 42.4067C3.83428 46.1263 6.07298 49.5048 8.89547 52.3485L13.8655 47.332C11.6928 45.1469 9.96926 42.5496 8.79383 39.6896C7.61839 36.8295 7.01429 33.7631 7.01621 30.6666Z" fill="url(#paint0_linear_65_1553)"/>
<path d="M30.3711 7.08409C30.7621 7.08409 31.1508 7.09855 31.5371 7.11781L31.8877 0.0398079C31.3854 0.0157249 30.8798 0.00368485 30.3711 0.00368485C26.382 -0.0012275 22.4316 0.789594 18.7462 2.33074C15.0608 3.87189 11.7132 6.13301 8.89551 8.98426L13.8655 14.0032C16.0295 11.8084 18.6017 10.0673 21.4344 8.87985C24.267 7.69244 27.304 7.08214 30.3711 7.08409Z" fill="url(#paint1_linear_65_1553)"/>
<path d="M30.3711 54.2519C29.9801 54.2519 29.5913 54.2519 29.2026 54.2206L28.8521 61.2962C29.356 61.3219 29.8624 61.3348 30.3711 61.3348C34.3585 61.3389 38.3071 60.5476 41.9905 59.006C45.6739 57.4644 49.0194 55.203 51.8349 52.3518L46.8744 47.3353C44.71 49.5289 42.138 51.2691 39.306 52.456C36.4739 53.643 33.4375 54.2534 30.3711 54.2519Z" fill="url(#paint2_linear_65_1553)"/>
<path d="M43.5358 11.1987L49.4406 6.8035C44.0436 2.39019 37.3066 -0.0122509 30.3618 4.69799e-05V7.08286C35.0645 7.07698 39.658 8.51212 43.5358 11.1987Z" fill="url(#paint3_linear_65_1553)"/>
<path d="M60.7396 30.6678C60.7434 28.8252 60.5838 26.9859 60.2625 25.172L53.7258 30.0368C53.7258 30.2464 53.7258 30.4559 53.7258 30.6678C53.7275 33.963 53.0434 37.2219 51.7182 40.233C50.3928 43.2442 48.4555 45.9405 46.0322 48.1472L50.7471 53.4095C53.8976 50.5373 56.4152 47.0286 58.1366 43.111C59.8581 39.1932 60.7449 34.9538 60.7396 30.6678Z" fill="#21A038"/>
<path d="M30.3712 54.253C27.1078 54.2541 23.8805 53.5631 20.8983 52.2248C17.9162 50.8865 15.2456 48.9305 13.0596 46.4838L7.85107 51.2426C10.6949 54.4246 14.1692 56.9673 18.0488 58.7061C21.9284 60.4448 26.1266 61.3408 30.3712 61.3357V54.253Z" fill="url(#paint4_linear_65_1553)"/>
<path d="M14.7097 13.1877L9.99728 7.92554C6.84588 10.7971 4.32738 14.3056 2.60511 18.2233C0.882856 22.1411 -0.00469546 26.3806 1.86808e-05 30.6671H7.01623C7.01478 27.372 7.6989 24.1132 9.02423 21.102C10.3496 18.091 12.2866 15.3946 14.7097 13.1877Z" fill="url(#paint5_linear_65_1553)"/>
<defs>
<linearGradient id="paint0_linear_65_1553" x1="10.3145" y1="51.4647" x2="2.51448" y2="29.1363" gradientUnits="userSpaceOnUse">
<stop offset="0.14" stop-color="#F1E813"/>
<stop offset="0.3" stop-color="#E6E418"/>
<stop offset="0.58" stop-color="#C9DA26"/>
<stop offset="0.89" stop-color="#A2CC39"/>
</linearGradient>
<linearGradient id="paint1_linear_65_1553" x1="10.8988" y1="10.2366" x2="30.6915" y2="2.76733" gradientUnits="userSpaceOnUse">
<stop offset="0.06" stop-color="#0FA7DF"/>
<stop offset="0.54" stop-color="#0098F8"/>
<stop offset="0.92" stop-color="#0290EA"/>
</linearGradient>
<linearGradient id="paint2_linear_65_1553" x1="28.3895" y1="57.06" x2="50.7373" y2="52.0606" gradientUnits="userSpaceOnUse">
<stop offset="0.12" stop-color="#A2CC39"/>
<stop offset="0.28" stop-color="#86C239"/>
<stop offset="0.87" stop-color="#219F38"/>
</linearGradient>
<linearGradient id="paint3_linear_65_1553" x1="28.9024" y1="2.37222" x2="48.0228" y2="8.21525" gradientUnits="userSpaceOnUse">
<stop offset="0.06" stop-color="#0290EA"/>
<stop offset="0.79" stop-color="#0C89CA"/>
</linearGradient>
<linearGradient id="paint4_linear_65_1553" x1="9.61108" y1="50.3804" x2="30.4374" y2="58.0881" gradientUnits="userSpaceOnUse">
<stop offset="0.13" stop-color="#F1E813"/>
<stop offset="0.3" stop-color="#EAE616"/>
<stop offset="0.53" stop-color="#D8DF1F"/>
<stop offset="0.8" stop-color="#BAD52D"/>
<stop offset="0.98" stop-color="#A2CC39"/>
</linearGradient>
<linearGradient id="paint5_linear_65_1553" x1="2.6138" y1="31.5244" x2="11.0969" y2="9.67181" gradientUnits="userSpaceOnUse">
<stop offset="0.07" stop-color="#A2CC39"/>
<stop offset="0.26" stop-color="#81C45E"/>
<stop offset="0.92" stop-color="#0FA7DF"/>
</linearGradient>
</defs>
</svg>
