<svg width="55" height="55" viewBox="0 0 55 55" fill="none" xmlns="http://www.w3.org/2000/svg">
<path fill-rule="evenodd" clip-rule="evenodd" d="M45.3224 10.152C45.8887 9.91365 46.5086 9.83144 47.1174 9.91394C47.7263 9.99643 48.3019 10.2406 48.7844 10.6211C49.2669 11.0015 49.6385 11.5043 49.8607 12.0772C50.0829 12.65 50.1475 13.272 50.0478 13.8783L44.8503 45.4047C44.3461 48.4458 41.0095 50.1897 38.2205 48.6749C35.8876 47.4076 32.4226 45.4551 29.3059 43.4178C27.7476 42.398 22.9741 39.1324 23.5607 36.8087C24.0649 34.8218 32.0857 27.3555 36.6691 22.9166C38.468 21.1726 37.6476 20.1666 35.5232 21.7708C30.2478 25.7537 21.7778 31.8105 18.9774 33.5155C16.507 35.0189 15.2191 35.2755 13.6791 35.0189C10.8695 34.5514 8.26385 33.8272 6.13718 32.9449C3.26343 31.7533 3.40323 27.8024 6.13489 26.652L45.3224 10.152Z" fill="white"/>
</svg>
