<svg width="55" height="55" viewBox="0 0 55 55" fill="none" xmlns="http://www.w3.org/2000/svg">
<path fill-rule="evenodd" clip-rule="evenodd" d="M27.5002 4.5835C14.8433 4.5835 4.5835 14.8433 4.5835 27.5002C4.5835 31.8314 5.78662 35.8877 7.87891 39.3435L5.83475 46.2918C5.71738 46.6908 5.70965 47.114 5.81239 47.5169C5.91512 47.9199 6.12452 48.2877 6.41857 48.5818C6.71262 48.8758 7.08045 49.0852 7.48341 49.1879C7.88637 49.2907 8.30956 49.283 8.7085 49.1656L15.6568 47.1214C19.2289 49.2823 23.3253 50.4221 27.5002 50.4168C40.157 50.4168 50.4168 40.157 50.4168 27.5002C50.4168 14.8433 40.157 4.5835 27.5002 4.5835ZM22.3164 32.6862C26.9525 37.32 31.3777 37.9318 32.9406 37.9891C35.317 38.0762 37.6316 36.2612 38.5322 34.1552C38.645 33.893 38.6857 33.6054 38.6503 33.3222C38.6148 33.039 38.5045 32.7704 38.3306 32.5441C37.0747 30.94 35.3766 29.7872 33.7175 28.6414C33.3712 28.4013 32.9454 28.3049 32.5295 28.3724C32.1136 28.44 31.7401 28.6662 31.4877 29.0035L30.1127 31.1004C30.04 31.2127 29.9274 31.2931 29.7976 31.3255C29.6678 31.3578 29.5306 31.3396 29.4137 31.2745C28.481 30.7406 27.122 29.8331 26.1458 28.8568C25.1695 27.8806 24.317 26.5835 23.8381 25.7104C23.7801 25.5991 23.7638 25.4709 23.7919 25.3486C23.8201 25.2264 23.8909 25.1182 23.9916 25.0435L26.1091 23.4714C26.4122 23.2092 26.6078 22.8444 26.6586 22.4469C26.7093 22.0494 26.6116 21.6472 26.3841 21.3172C25.3575 19.8139 24.1612 17.9027 22.4264 16.6354C22.2021 16.4742 21.9399 16.3736 21.6652 16.3435C21.3906 16.3134 21.1129 16.3547 20.8589 16.4635C18.7506 17.3664 16.9264 19.681 17.0135 22.062C17.0708 23.625 17.6827 28.0502 22.3164 32.6862Z" fill="white"/>
</svg>
