<svg width="55" height="55" viewBox="0 0 55 55" fill="none" xmlns="http://www.w3.org/2000/svg">
<path fill-rule="evenodd" clip-rule="evenodd" d="M27.5002 9.1665C29.4595 9.1665 31.4693 9.21692 33.4172 9.29942L35.7181 9.40942L37.9204 9.54005L39.9829 9.67984L41.8666 9.8265C43.9112 9.98209 45.8353 10.8542 47.3001 12.2891C48.7648 13.7241 49.6762 15.6299 49.8737 17.6709L49.9654 18.6448L50.1372 20.7303C50.2977 22.8913 50.4168 25.2471 50.4168 27.4998C50.4168 29.7525 50.2977 32.1084 50.1372 34.2694L49.9654 36.3548L49.8737 37.3288C49.6761 39.3701 48.7644 41.2762 47.2992 42.7112C45.834 44.1462 43.9093 45.0181 41.8643 45.1732L39.9852 45.3175L37.9227 45.4596L35.7181 45.5902L33.4172 45.7003C31.446 45.7856 29.4732 45.83 27.5002 45.8332C25.5271 45.83 23.5543 45.7856 21.5831 45.7003L19.2822 45.5902L17.08 45.4596L15.0175 45.3175L13.1337 45.1732C11.0891 45.0176 9.165 44.1455 7.70026 42.7105C6.23553 41.2756 5.32414 39.3698 5.12662 37.3288L5.03495 36.3548L4.86308 34.2694C4.68853 32.017 4.59527 29.759 4.5835 27.4998C4.5835 25.2471 4.70266 22.8913 4.86308 20.7303L5.03495 18.6448L5.12662 17.6709C5.32406 15.6303 6.23513 13.7247 7.69939 12.2898C9.16365 10.8549 11.0872 9.9826 13.1314 9.8265L15.0129 9.67984L17.0754 9.54005L19.28 9.40942L21.5808 9.29942C23.5528 9.214 25.5263 9.16969 27.5002 9.1665ZM22.9168 21.9425V33.0571C22.9168 34.1159 24.0627 34.7759 24.9793 34.2488L34.6043 28.6915C34.8138 28.5709 34.9877 28.3973 35.1087 28.1881C35.2297 27.9789 35.2934 27.7415 35.2934 27.4998C35.2934 27.2582 35.2297 27.0208 35.1087 26.8116C34.9877 26.6024 34.8138 26.4287 34.6043 26.3082L24.9793 20.7532C24.7702 20.6325 24.533 20.5689 24.2916 20.569C24.0502 20.569 23.813 20.6326 23.6039 20.7534C23.3949 20.8742 23.2213 21.0479 23.1007 21.257C22.9801 21.4662 22.9167 21.7034 22.9168 21.9448V21.9425Z" fill="white"/>
</svg>
